<?xml version="1.0" encoding="UTF-8" standalone="no"?>
<!-- Created with Inkscape (http://www.inkscape.org/) -->

<svg
   xmlns:dc="http://purl.org/dc/elements/1.1/"
   xmlns:cc="http://creativecommons.org/ns#"
   xmlns:rdf="http://www.w3.org/1999/02/22-rdf-syntax-ns#"
   xmlns:svg="http://www.w3.org/2000/svg"
   xmlns="http://www.w3.org/2000/svg"
   xmlns:sodipodi="http://sodipodi.sourceforge.net/DTD/sodipodi-0.dtd"
   xmlns:inkscape="http://www.inkscape.org/namespaces/inkscape"
   width="64px"
   height="64px"
   id="svg2985"
   version="1.1"
   inkscape:version="0.48.4 r9939"
   sodipodi:docname="covertness_icon.svg"
   inkscape:export-filename="/home/quaid/dev/overward/image_source/covertness_icon.png"
   inkscape:export-xdpi="90"
   inkscape:export-ydpi="90">
  <defs
     id="defs2987">
    <marker
       inkscape:stockid="DotS"
       orient="auto"
       refY="0.0"
       refX="0.0"
       id="DotS"
       style="overflow:visible">
      <path
         id="path4005"
         d="M -2.5,-1.0 C -2.5,1.7600000 -4.7400000,4.0 -7.5,4.0 C -10.260000,4.0 -12.5,1.7600000 -12.5,-1.0 C -12.5,-3.7600000 -10.260000,-6.0 -7.5,-6.0 C -4.7400000,-6.0 -2.5,-3.7600000 -2.5,-1.0 z "
         style="fill-rule:evenodd;stroke:#000000;stroke-width:1.0pt"
         transform="scale(0.2) translate(7.4, 1)" />
    </marker>
    <marker
       inkscape:stockid="DotL"
       orient="auto"
       refY="0.0"
       refX="0.0"
       id="DotL"
       style="overflow:visible">
      <path
         id="path3999"
         d="M -2.5,-1.0 C -2.5,1.7600000 -4.7400000,4.0 -7.5,4.0 C -10.260000,4.0 -12.5,1.7600000 -12.5,-1.0 C -12.5,-3.7600000 -10.260000,-6.0 -7.5,-6.0 C -4.7400000,-6.0 -2.5,-3.7600000 -2.5,-1.0 z "
         style="fill-rule:evenodd;stroke:#000000;stroke-width:1.0pt"
         transform="scale(0.8) translate(7.4, 1)" />
    </marker>
  </defs>
  <sodipodi:namedview
     id="base"
     pagecolor="#ffffff"
     bordercolor="#666666"
     borderopacity="1.0"
     inkscape:pageopacity="0.0"
     inkscape:pageshadow="2"
     inkscape:zoom="6.4609375"
     inkscape:cx="76.241045"
     inkscape:cy="31.636344"
     inkscape:current-layer="layer1"
     showgrid="true"
     inkscape:document-units="px"
     inkscape:grid-bbox="true"
     inkscape:window-width="1920"
     inkscape:window-height="1010"
     inkscape:window-x="0"
     inkscape:window-y="0"
     inkscape:window-maximized="1" />
  <metadata
     id="metadata2990">
    <rdf:RDF>
      <cc:Work
         rdf:about="">
        <dc:format>image/svg+xml</dc:format>
        <dc:type
           rdf:resource="http://purl.org/dc/dcmitype/StillImage" />
        <dc:title></dc:title>
      </cc:Work>
    </rdf:RDF>
  </metadata>
  <g
     id="layer1"
     inkscape:label="Layer 1"
     inkscape:groupmode="layer">
    <path
       style="fill:none;stroke:#000000;stroke-width:0.96817869;stroke-opacity:1"
       d="m -82.943381,13.3904 c -3.077299,0 -5.548138,1.768029 -5.548138,3.938366 0,2.170338 2.470839,3.912956 5.548138,3.912956 l 2.053533,0 0,7.902137 -7.42154,9.020127 -12.861602,15.651824 25.65115,0.05081 25.651145,0.02542 -12.789545,-15.677223 -7.709753,-9.477486 0,-7.495596 1.477102,0 c 3.077298,0 5.54814,-1.74262 5.54814,-3.912957 0,-2.170336 -2.470842,-3.938365 -5.54814,-3.938365 l -14.05049,0 z"
       id="rect2995"
       inkscape:connector-curvature="0" />
    <path
       style="fill:#000000;fill-opacity:0.49327357;stroke:#000000;stroke-width:0.96817869;stroke-opacity:1"
       d="m -64.140576,36.385362 c -0.300509,0.222345 -0.594176,0.521249 -0.90625,0.65625 -0.580575,0.251153 -1.164275,0.336253 -1.78125,0.3125 -0.616975,-0.02375 -1.257594,-0.17447 -1.90625,-0.4375 -0.648656,-0.26303 -1.324379,-0.627074 -2,-1.09375 -1.527153,0.557514 -3.037397,1.178292 -4.59375,1.34375 -0.778176,0.08273 -1.57566,0.04518 -2.375,-0.15625 -0.79934,-0.201425 -1.607755,-0.577827 -2.4375,-1.1875 -1.210609,0.448173 -2.414392,0.934421 -3.625,1.0625 -0.605304,0.06404 -1.207196,0.03507 -1.8125,-0.125 -0.364829,-0.09648 -0.728921,-0.356643 -1.09375,-0.5625 l -1.625,1.96875 -12.843754,15.65625 25.656254,0.0625 25.65625,0.03125 -12.8125,-15.6875 -1.5,-1.84375 z"
       id="path3870"
       inkscape:connector-curvature="0" />
    <path
       sodipodi:type="arc"
       style="fill:#000000;fill-opacity:0.161435;stroke:#000000;stroke-width:1;stroke-linecap:round;stroke-linejoin:round;stroke-miterlimit:4;stroke-opacity:1;stroke-dasharray:none"
       id="path3781"
       sodipodi:cx="40.626499"
       sodipodi:cy="55.064743"
       sodipodi:rx="2.0570378"
       sodipodi:ry="2.0570378"
       d="m 42.683537,55.064743 a 2.0570378,2.0570378 0 1 1 -4.114076,0 2.0570378,2.0570378 0 1 1 4.114076,0 z"
       transform="translate(-102.20907,-7.0067854)" />
    <path
       sodipodi:type="arc"
       style="fill:#000000;fill-opacity:0.161435;stroke:#000000;stroke-width:1;stroke-linecap:round;stroke-linejoin:round;stroke-miterlimit:4;stroke-opacity:1;stroke-dasharray:none"
       id="path3781-4"
       sodipodi:cx="40.626499"
       sodipodi:cy="55.064743"
       sodipodi:rx="2.0570378"
       sodipodi:ry="2.0570378"
       d="m 42.683537,55.064743 a 2.0570378,2.0570378 0 1 1 -4.114076,0 2.0570378,2.0570378 0 1 1 4.114076,0 z"
       transform="translate(-115.83695,-12.020817)" />
    <path
       sodipodi:type="arc"
       style="fill:#000000;fill-opacity:0.161435;stroke:#000000;stroke-width:1;stroke-linecap:round;stroke-linejoin:round;stroke-miterlimit:4;stroke-opacity:1;stroke-dasharray:none"
       id="path3781-4-2"
       sodipodi:cx="40.626499"
       sodipodi:cy="55.064743"
       sodipodi:rx="2.0570378"
       sodipodi:ry="2.0570378"
       d="m 42.683537,55.064743 a 2.0570378,2.0570378 0 1 1 -4.114076,0 2.0570378,2.0570378 0 1 1 4.114076,0 z"
       transform="translate(-8.0364679,-36.033968)" />
    <path
       sodipodi:type="arc"
       style="fill:#000000;fill-opacity:0.161435;stroke:#000000;stroke-width:1;stroke-linecap:round;stroke-linejoin:round;stroke-miterlimit:4;stroke-opacity:1;stroke-dasharray:none"
       id="path3781-4-5"
       sodipodi:cx="40.626499"
       sodipodi:cy="55.064743"
       sodipodi:rx="2.0570378"
       sodipodi:ry="2.0570378"
       d="m 42.683537,55.064743 a 2.0570378,2.0570378 0 1 1 -4.114076,0 2.0570378,2.0570378 0 1 1 4.114076,0 z"
       transform="translate(-122.84373,-47.890415)" />
    <path
       sodipodi:type="arc"
       style="fill:#000000;fill-opacity:0.161435;stroke:#000000;stroke-width:1;stroke-linecap:round;stroke-linejoin:round;stroke-miterlimit:4;stroke-opacity:1;stroke-dasharray:none"
       id="path3781-4-3"
       sodipodi:cx="40.626499"
       sodipodi:cy="55.064743"
       sodipodi:rx="2.0570378"
       sodipodi:ry="2.0570378"
       d="m 42.683537,55.064743 a 2.0570378,2.0570378 0 1 1 -4.114076,0 2.0570378,2.0570378 0 1 1 4.114076,0 z"
       transform="translate(-125.35075,-5.6568561)" />
    <path
       style="fill:#787878;fill-opacity:1;stroke:#000000;stroke-width:0.96817869;stroke-opacity:1"
       d="m -73.884631,-38.531395 c -3.077299,0 -5.53125,1.767163 -5.53125,3.9375 0,2.170338 2.453951,3.90625 5.53125,3.90625 l 2.0625,0 0,7.90625 -5.8125,7.03125 c 0.364829,0.205857 0.728921,0.466021 1.09375,0.5625 0.605304,0.160073 1.207196,0.18904 1.8125,0.125 1.210608,-0.128079 2.414391,-0.614327 3.625,-1.0625 0.829745,0.609673 1.63816,0.986075 2.4375,1.1875 0.79934,0.201425 1.596824,0.238979 2.375,0.15625 1.556353,-0.165458 3.066597,-0.786236 4.59375,-1.34375 0.675621,0.466676 1.351344,0.83072 2,1.09375 0.648656,0.26303 1.289275,0.413746 1.90625,0.4375 0.616975,0.02375 1.200675,-0.06135 1.78125,-0.3125 0.312074,-0.135001 0.605741,-0.433905 0.90625,-0.65625 l -6.1875,-7.625 0,-7.5 1.46875,0 c 3.077298,0 5.53125,-1.735913 5.53125,-3.90625 0,-2.170336 -2.453952,-3.9375 -5.53125,-3.9375 l -14.0625,0 z"
       id="rect2995-8"
       inkscape:connector-curvature="0" />
    <path
       style="fill:#000000;fill-opacity:0.161435;stroke:#000000;stroke-width:1.57316792;stroke-linecap:round;stroke-linejoin:round;stroke-miterlimit:4;stroke-opacity:1;stroke-dasharray:none"
       d="m -33.097746,99.355256 c -2.432356,8.175924 -14.111721,14.341414 -28.099121,14.341414 -13.758008,0 -25.248415,-5.94972 -27.93599,-13.926579 -0.297449,1.016369 -0.448607,2.071799 -0.448607,3.140889 0,9.69492 12.754144,17.54156 28.506945,17.54156 15.7528,0 28.547727,-7.84664 28.547727,-17.54156 0,-1.21187 -0.191002,-2.41299 -0.570954,-3.555724 z"
       id="path3891"
       inkscape:connector-curvature="0" />
    <rect
       style="fill:#000000;fill-opacity:1;stroke:#000000;stroke-width:1;stroke-linecap:round;stroke-linejoin:round;stroke-miterlimit:4;stroke-opacity:1;stroke-dasharray:none"
       id="rect3912"
       width="3.6363637"
       height="48.727272"
       x="-31.818182"
       y="8.818182"
       ry="1.8181819" />
    <rect
       style="fill:#000000;fill-opacity:1;stroke:#000000;stroke-width:1.46635509;stroke-linecap:round;stroke-linejoin:round;stroke-miterlimit:4;stroke-opacity:1;stroke-dasharray:none"
       id="rect3912-5"
       width="5.3426518"
       height="71.311707"
       x="-124.91412"
       y="7.5570273"
       ry="2.6608846"
       transform="matrix(0.75550554,-0.65514226,0.73062212,0.68278204,0,0)" />
    <path
       style="fill:none;stroke:#000000;stroke-width:2.1445744;stroke-linecap:round;stroke-linejoin:round;stroke-miterlimit:4;stroke-opacity:1;stroke-dasharray:none;marker-start:none"
       d="m -88.820591,108.68556 -1.076927,0.64943"
       id="path3932"
       inkscape:connector-curvature="0" />
    <path
       style="fill:none;stroke:#000000;stroke-width:1.75399995;stroke-linecap:round;stroke-linejoin:round;stroke-miterlimit:4;stroke-opacity:1;stroke-dasharray:none;marker-start:none"
       d="m -59.855134,120.94342 -0.0461,2.40457"
       id="path3932-9"
       inkscape:connector-curvature="0" />
    <path
       style="fill:none;stroke:#000000;stroke-width:1.87755883;stroke-linecap:round;stroke-linejoin:round;stroke-miterlimit:4;stroke-opacity:1;stroke-dasharray:none;marker-start:none"
       d="m -32.584686,110.21379 -0.802227,-0.66822"
       id="path3932-1"
       inkscape:connector-curvature="0" />
    <path
       style="fill:none;stroke:#000000;stroke-width:2.46346331;stroke-linecap:round;stroke-linejoin:round;stroke-miterlimit:4;stroke-opacity:1;stroke-dasharray:none;marker-start:none"
       d="m -40.074737,117.42749 -0.912816,-1.01098"
       id="path3932-0"
       inkscape:connector-curvature="0" />
    <path
       style="fill:none;stroke:#000000;stroke-width:1.83501279;stroke-linecap:round;stroke-linejoin:round;stroke-miterlimit:4;stroke-opacity:1;stroke-dasharray:none;marker-start:none"
       d="m -71.953983,119.8089 -0.380443,1.34592"
       id="path3932-4"
       inkscape:connector-curvature="0" />
    <path
       style="fill:none;stroke:#000000;stroke-width:2.1346705;stroke-linecap:round;stroke-linejoin:round;stroke-miterlimit:4;stroke-opacity:1;stroke-dasharray:none;marker-start:none"
       d="m -83.092929,115.47021 -0.777278,0.89149"
       id="path3932-49"
       inkscape:connector-curvature="0" />
    <path
       style="fill:#000000;fill-opacity:0.49019608;stroke:#000000;stroke-width:0.95690221;stroke-linecap:round;stroke-linejoin:round;stroke-miterlimit:4;stroke-opacity:1;stroke-dasharray:none"
       d="m 20.1875,4.8847011 -3.698274,4.5364399 -3.698275,4.53644 5.73546,0 0,39.857903 2.789376,0 0,-39.857903 6.268262,0 L 23.885774,9.421141 20.1875,4.8847011 z"
       id="path3011"
       inkscape:connector-curvature="0" />
    <path
       style="fill:#000000;fill-opacity:0.48878922;stroke:#000000;stroke-width:0.9611125;stroke-linecap:round;stroke-linejoin:round;stroke-miterlimit:4;stroke-opacity:1;stroke-dasharray:none"
       d="m 43.464763,8.9675977 0,40.3650443 -5.890457,0 3.728534,4.577776 3.697201,4.577776 3.697201,-4.577776 3.697202,-4.606567 -6.109782,0.02879 0,-40.3650443 -2.819899,0 z"
       id="path3011-8"
       inkscape:connector-curvature="0" />
    <path
       style="fill:#000000;fill-opacity:0.29596413999999999;stroke:#000000;stroke-width:1;stroke-linecap:round;stroke-linejoin:round;stroke-miterlimit:4;stroke-opacity:1;stroke-dasharray:none"
       d="m 44.15083,28.696736 c 4.642775,1.236868 7.636428,3.1897 7.636428,5.385712 0,3.738812 -8.669752,6.775571 -19.381345,6.775571 -10.711594,0 -19.381343,-3.036759 -19.381343,-6.775571 0,-2.139712 2.838569,-4.058272 7.279168,-5.298846 -10.30204,1.38531 -17.4610716,4.458954 -17.4610716,8.035133 0,4.8725 13.2856466,8.816929 29.6972196,8.816929 16.411571,0 29.741878,-3.944429 29.741878,-8.816929 0,-3.649609 -7.487695,-6.779749 -18.130934,-8.121999 z"
       id="path3053"
       inkscape:connector-curvature="0" />
    <path
       sodipodi:type="arc"
       style="fill:#000000;fill-opacity:0.161435;stroke:#000000;stroke-width:1;stroke-linecap:round;stroke-linejoin:round;stroke-miterlimit:4;stroke-opacity:1;stroke-dasharray:none"
       id="path3781-4-2-6"
       sodipodi:cx="40.626499"
       sodipodi:cy="55.064743"
       sodipodi:rx="2.0570378"
       sodipodi:ry="2.0570378"
       d="m 42.683537,55.064743 a 2.0570378,2.0570378 0 1 1 -4.114076,0 2.0570378,2.0570378 0 1 1 4.114076,0 z"
       transform="translate(-8.0123746,-26.598319)" />
    <path
       sodipodi:type="arc"
       style="fill:#000000;fill-opacity:0.161435;stroke:#000000;stroke-width:1;stroke-linecap:round;stroke-linejoin:round;stroke-miterlimit:4;stroke-opacity:1;stroke-dasharray:none"
       id="path3781-4-2-69"
       sodipodi:cx="40.626499"
       sodipodi:cy="55.064743"
       sodipodi:rx="2.0570378"
       sodipodi:ry="2.0570378"
       d="m 42.683537,55.064743 a 2.0570378,2.0570378 0 1 1 -4.114076,0 2.0570378,2.0570378 0 1 1 4.114076,0 z"
       transform="translate(-7.9349865,-17.816294)" />
  </g>
</svg>
